<?xml version="1.0" standalone="no"?><!DOCTYPE svg PUBLIC "-//W3C//DTD SVG 1.1//EN" "http://www.w3.org/Graphics/SVG/1.1/DTD/svg11.dtd"><svg t="1699006386246" class="icon" viewBox="0 0 1024 1024" version="1.1" xmlns="http://www.w3.org/2000/svg" p-id="7965" xmlns:xlink="http://www.w3.org/1999/xlink" width="200" height="200"><path d="M857.5488 253.3888L609.28 104.1408a190.2592 190.2592 0 0 0-196.4032 0L164.5056 253.3888A189.7984 189.7984 0 0 0 72.5504 430.08l25.6 362.3424A161.6384 161.6384 0 0 0 258.7648 942.08h73.3696v-239.4112a178.8928 178.8928 0 0 1 357.7856 0V942.08h73.3696a161.6384 161.6384 0 0 0 160.6656-149.7088l25.6-362.3424a189.7984 189.7984 0 0 0-92.0064-176.64z" fill="#ffffff" p-id="7966"></path><path d="M511.0272 595.456a107.52 107.52 0 0 0-107.2128 107.2128V942.08h214.4256v-239.4112a107.52 107.52 0 0 0-107.2128-107.2128z" fill="#ffffff" p-id="7967"></path></svg>