<?xml version="1.0" standalone="no"?><!DOCTYPE svg PUBLIC "-//W3C//DTD SVG 1.1//EN" "http://www.w3.org/Graphics/SVG/1.1/DTD/svg11.dtd"><svg t="1699006250132" class="icon" viewBox="0 0 1024 1024" version="1.1" xmlns="http://www.w3.org/2000/svg" p-id="7120" xmlns:xlink="http://www.w3.org/1999/xlink" width="200" height="200"><path d="M380.4672 640.1536l190.208-73.6256 73.6256-190.208-190.208 73.6256-73.6256 190.208zM680.5504 362.2912v0.0512-0.0512z" fill="#ffffff" p-id="7121"></path><path d="M512.4096 81.1008a427.1616 427.1616 0 1 0 427.1616 427.1616 427.6224 427.6224 0 0 0-427.1616-427.1616z m212.7872 284.8768L634.88 599.5008a54.4256 54.4256 0 0 1-31.1296 31.1808l-233.6256 90.368a54.4768 54.4768 0 0 1-70.5024-70.5024l90.368-233.5232a54.6816 54.6816 0 0 1 31.1808-31.1808l233.5232-90.368a54.4768 54.4768 0 0 1 70.5024 70.5024z" fill="#ffffff" p-id="7122"></path></svg>