<?xml version="1.0" standalone="no"?><!DOCTYPE svg PUBLIC "-//W3C//DTD SVG 1.1//EN" "http://www.w3.org/Graphics/SVG/1.1/DTD/svg11.dtd"><svg t="1699006296878" class="icon" viewBox="0 0 1024 1024" version="1.1" xmlns="http://www.w3.org/2000/svg" p-id="7331" xmlns:xlink="http://www.w3.org/1999/xlink" width="200" height="200"><path d="M872.2432 885.76h-131.1232a438.6816 438.6816 0 1 0-223.5904 61.44h354.7136a30.72 30.72 0 0 0 0-61.44zM343.6544 556.4416a48.1792 48.1792 0 1 1 48.1792-48.1792 48.2304 48.2304 0 0 1-48.1792 48.1792z m174.08 174.08a48.1792 48.1792 0 1 1 48.1792-48.1792 48.2304 48.2304 0 0 1-48.384 47.9744z m0-347.7504a48.1792 48.1792 0 1 1 48.1792-48.1792 48.2304 48.2304 0 0 1-48.384 47.9744z m174.08 174.08a48.1792 48.1792 0 1 1 48.1792-48.1792 48.2304 48.2304 0 0 1-48.7936 47.7696z" fill="#ffffff" p-id="7332"></path></svg>