<?xml version="1.0" standalone="no"?><!DOCTYPE svg PUBLIC "-//W3C//DTD SVG 1.1//EN" "http://www.w3.org/Graphics/SVG/1.1/DTD/svg11.dtd"><svg t="1699005748160" class="icon" viewBox="0 0 1024 1024" version="1.1" xmlns="http://www.w3.org/2000/svg" p-id="6273" xmlns:xlink="http://www.w3.org/1999/xlink" width="200" height="200"><path d="M877.9264 173.6192a114.176 114.176 0 0 0-94.5664-24.064l-259.2768 50.3808a51.2 51.2 0 0 1-20.1728 0l-261.632-50.5344a114.5344 114.5344 0 0 0-136.2944 112.64v432.0256a114.9952 114.9952 0 0 0 83.2512 110.1824L481.28 887.1936a114.7904 114.7904 0 0 0 62.6176 0l292.352-83.0976a115.0464 115.0464 0 0 0 83.2512-110.1824V262.0416a114.3296 114.3296 0 0 0-41.5744-88.4224z m-328.2944 537.2416a35.84 35.84 0 0 1-71.68 0V365.9264a35.84 35.84 0 0 1 71.68 0z" fill="#ffffff" p-id="6274"></path></svg>