<?xml version="1.0" standalone="no"?><!DOCTYPE svg PUBLIC "-//W3C//DTD SVG 1.1//EN" "http://www.w3.org/Graphics/SVG/1.1/DTD/svg11.dtd"><svg t="1699006351765" class="icon" viewBox="0 0 1024 1024" version="1.1" xmlns="http://www.w3.org/2000/svg" p-id="7755" xmlns:xlink="http://www.w3.org/1999/xlink" width="200" height="200"><path d="M963.7888 367.104l-117.248-194.048a137.2672 137.2672 0 0 0-118.1184-67.2256H296.96A137.2672 137.2672 0 0 0 178.7904 173.056L61.44 367.104a143.36 143.36 0 0 0 19.3024 173.568l332.8 344.7296a136.8064 136.8064 0 0 0 197.632 0l332.8-344.7296a143.36 143.36 0 0 0 19.8144-173.568z m-259.328 180.3264l-159.3856 175.872a35.84 35.84 0 0 1-25.9584 11.776h-0.6144a35.84 35.84 0 0 1-25.6-10.8544L321.7408 548.352a35.84 35.84 0 0 1 51.2-49.9712l144.4352 148.48 133.7344-147.6096a35.84 35.84 0 0 1 53.1456 48.128z" fill="#ffffff" p-id="7756"></path></svg>