<?xml version="1.0" standalone="no"?><!DOCTYPE svg PUBLIC "-//W3C//DTD SVG 1.1//EN" "http://www.w3.org/Graphics/SVG/1.1/DTD/svg11.dtd"><svg t="1699005890399" class="icon" viewBox="0 0 1024 1024" version="1.1" xmlns="http://www.w3.org/2000/svg" p-id="6694" xmlns:xlink="http://www.w3.org/1999/xlink" width="200" height="200"><path d="M526.6432 446.4128a35.5328 35.5328 0 0 1-40.4992 0 93.6448 93.6448 0 0 0-48.8448-15.7184c-17.7664 0-37.6832 6.8608-55.1936 29.3376-9.7792 12.5952-35.84 46.08 20.1216 97.6384 10.24 9.5744 68.5568 65.5872 104.2432 99.9424 42.8032-40.96 94.464-90.88 104.2432-99.9424 55.9616-51.6096 29.9008-85.0432 20.1216-97.6384-40.4992-52.224-93.9008-20.5312-104.192-13.6192z" fill="#ffffff" p-id="6695"></path><path d="M817.9712 201.2672A434.3296 434.3296 0 0 0 148.48 747.008v140.288a56.32 56.32 0 0 0 56.32 56.32h301.7728c239.3088 0 436.5312-192.1536 439.7056-428.3392a430.592 430.592 0 0 0-128.3072-314.0096z m-158.72 408.9344c-7.3216 6.7584-46.08 43.7248-105.8304 101.4272a67.5328 67.5328 0 0 1-94.1056 0c-59.9552-57.6512-98.304-94.6176-105.6768-101.4272-65.3824-60.3136-75.8272-133.12-28.0576-194.56C383.0272 342.016 460.2368 353.28 506.4704 375.552 552.96 353.28 629.76 342.016 687.4112 415.8464c47.7696 61.3888 37.2736 134.0416-28.0576 194.3552z" fill="#ffffff" p-id="6696"></path></svg>