<?xml version="1.0" standalone="no"?><!DOCTYPE svg PUBLIC "-//W3C//DTD SVG 1.1//EN" "http://www.w3.org/Graphics/SVG/1.1/DTD/svg11.dtd"><svg t="1699005850143" class="icon" viewBox="0 0 1024 1024" version="1.1" xmlns="http://www.w3.org/2000/svg" p-id="6483" xmlns:xlink="http://www.w3.org/1999/xlink" width="200" height="200"><path d="M387.7376 422.7072A43.3664 43.3664 0 1 0 431.1552 465.92a43.4176 43.4176 0 0 0-43.4176-43.2128z" fill="#ffffff" p-id="6484"></path><path d="M985.2928 317.0816c-9.9328-26.9312-36.9664-62.5664-109.2096-79.2064a397.4144 397.4144 0 0 0-78.2848-9.1648A397.6704 397.6704 0 0 0 119.808 482.1504c-90.7776 84.3776-93.7472 146.688-79.7696 184.32 23.0912 62.4128 100.864 88.4224 201.3696 88.4224 102.0416 0 227.4816-26.7776 343.04-69.4272 228.9664-84.6336 447.3856-242.5344 400.8448-368.384zM387.7376 581.12A115.0464 115.0464 0 1 1 502.8352 465.92a115.2 115.2 0 0 1-115.0976 115.2zM603.8016 738.3552c-119.5008 44.1856-244.992 70.6048-347.3408 72.7552a397.6192 397.6192 0 0 0 653.6192-239.616c-82.7904 66.8672-193.5872 125.2352-306.2784 166.8608z" fill="#ffffff" p-id="6485"></path></svg>