<?xml version="1.0" standalone="no"?><!DOCTYPE svg PUBLIC "-//W3C//DTD SVG 1.1//EN" "http://www.w3.org/Graphics/SVG/1.1/DTD/svg11.dtd"><svg t="1699211672292" class="icon" viewBox="0 0 1024 1024" version="1.1" xmlns="http://www.w3.org/2000/svg" p-id="3392" xmlns:xlink="http://www.w3.org/1999/xlink" width="200" height="200"><path d="M948.46464 501.95968c18.7904-17.47456 30.6176-42.3424 30.6176-70.02624 0-46.55104-33.24928-85.2992-77.27616-93.89056-6.37952-32.68096-29.39392-59.39712-59.8528-71.00416-72.33536-87.98208-189.19424-145.17248-321.13152-145.17248-135.23456 0-254.6176 60.08832-326.4512 151.8336-38.89664 6.8352-69.68832 37.16096-77.23008 75.81696-44.032 8.59136-77.27616 47.34464-77.27616 93.89056 0 27.68896 11.83232 52.54656 30.6176 70.02624-18.78528 17.47456-30.6176 42.3424-30.6176 70.02624 0 23.70048 8.65792 45.34272 22.93248 62.06464a95.21664 95.21664 0 0 0-22.93248 62.06464c0 52.85888 42.8544 95.70304 95.70304 95.70304 0 52.84864 42.84928 95.70816 95.70304 95.70816s95.70304-42.85952 95.70304-95.70816c0-6.91712-0.768-13.6448-2.16576-20.14208 57.86624 29.21984 124.71808 45.99296 196.01408 45.99296 61.33248 0 119.41376-12.38016 171.29472-34.44224 1.54112 51.51744 43.67872 92.81536 95.55968 92.81536 52.85376 0 95.69792-42.84416 95.69792-95.69792 52.85376 0 95.70304-42.8544 95.70304-95.70816a95.232 95.232 0 0 0-22.93248-62.05952 95.26784 95.26784 0 0 0 22.93248-62.06976c0.00512-27.67872-11.82208-52.54656-30.61248-70.02112z" fill="#CF3924" p-id="3393"></path><path d="M231.2704 916.8128c-56.95488 0-104.2432-42.1632-112.30208-96.9216-54.74816-8.04864-96.91136-55.3472-96.91136-112.30208a113.408 113.408 0 0 1 18.5344-62.06464 113.4592 113.4592 0 0 1-18.5344-62.06464c0-25.42592 8.70912-50.1504 24.31488-70.02624-15.60576-19.88608-24.31488-44.61056-24.31488-70.02624 0-50.25792 33.19296-94.208 80.42496-108.5696 11.65824-38.10816 43.0592-67.86048 81.96608-77.25056 78.11072-96.256 203.32032-153.52832 336.37888-153.52832 129.99168 0 253.71136 55.30112 331.96544 148.16256 30.52032 13.18912 53.98016 39.552 63.67744 71.13728 47.22688 14.35648 80.42496 58.31168 80.42496 108.5696 0 25.4208-8.704 50.14528-24.31488 70.02624 15.60576 19.88096 24.30976 44.60544 24.31488 70.02624a113.4592 113.4592 0 0 1-18.5344 62.07488 113.4336 113.4336 0 0 1 18.5344 62.05952c0 56.95488-42.1632 104.25344-96.91648 112.3072-8.04864 54.74816-55.3472 96.90624-112.29696 96.90624-53.34016 0-97.7664-36.10624-110.03904-85.75488-49.73568 18.18112-102.38464 27.38688-156.81536 27.38688-61.00992 0-121.37984-12.0832-176.3584-35.13856-4.37248 58.62912-53.47328 104.99072-113.19808 104.99072zM520.82688 139.6736c-124.544 0-241.34144 54.20544-312.43264 145.00864l-4.20864 5.376-6.72768 1.18272c-31.4624 5.5296-56.71424 30.32064-62.83776 61.69088l-2.29376 11.76576-11.76576 2.29376c-36.43904 7.11168-62.88384 39.24992-62.88384 76.416 0 21.79072 8.8576 42.02496 24.93952 56.99072l14.01344 13.03552-14.01856 13.03552c-16.08192 14.95552-24.93952 35.19488-24.93952 56.99072 0 18.46272 6.6304 36.4032 18.66752 50.50368l9.87136 11.56608-9.87648 11.56096a77.81888 77.81888 0 0 0-18.66752 50.49856c0 42.9568 34.944 77.9008 77.9008 77.9008h17.80224v17.80736c0 42.9568 34.944 77.90592 77.9008 77.90592s77.9008-34.94912 77.9008-77.90592c0-5.41696-0.59392-10.93632-1.7664-16.4096l-7.81312-36.40832 33.24416 16.78848c57.10336 28.84096 122.112 44.07808 187.98592 44.07808 57.51296 0 112.79872-11.1104 164.33152-33.01888l23.98208-10.19904 0.77824 26.05568c1.26464 42.35776 35.42528 75.54048 77.76256 75.54048 42.95168 0 77.89568-34.944 77.89568-77.89568v-17.80736h17.80736c42.9568 0 77.9008-34.944 77.9008-77.90592 0-18.46272-6.6304-36.39808-18.66752-50.49344l-9.87136-11.56608 9.87136-11.56096a77.88544 77.88544 0 0 0 18.66752-50.5088c-0.00512-21.79584-8.8576-42.04032-24.93952-56.99584l-14.01856-13.03552 14.01856-13.03552c16.08704-14.95552 24.93952-35.19488 24.93952-56.9856 0-37.16608-26.4448-69.30432-62.87872-76.416l-11.77088-2.29888-2.29376-11.76576c-5.09952-26.13248-23.77216-48.26624-48.72192-57.77408l-4.40832-1.68448-3.00544-3.64544c-71.39328-86.8352-186.29632-138.6752-307.37408-138.6752z" fill="#2E0C08" p-id="3394"></path><path d="M764.02688 561.41824c-3.47648-39.44448 9.00608-50.98496-10.752-159.07328-56.63744-126.8736-228.91008-128.1024-248.10496-127.84128-19.2-0.26112-181.2736 8.3712-236.09344 128.94208-26.31168 83.19488-19.28192 118.528-22.76352 157.9776-3.47648 39.43936-63.59552 141.08672 31.31904 232.00768 57.2416 54.83008 140.91264 81.38752 225.76128 85.66272v0.20992c0.59392-0.03584 1.1776-0.08704 1.7664-0.10752 0.59392 0.0256 1.18784 0.0768 1.77664 0.10752v-0.20992c84.84864-4.2752 168.51968-30.82752 225.76128-85.66272 94.92992-90.92096 34.80576-192.56832 31.32928-232.0128z" fill="#FFFFFF" p-id="3395"></path><path d="M377.6256 517.47328a17.80736 17.80736 0 0 1-17.80736-17.80224v-48.33792a17.80736 17.80736 0 0 1 35.6096 0v48.33792a17.80224 17.80224 0 0 1-17.80224 17.80224zM377.6256 644.92032a17.80736 17.80736 0 0 1-17.80736-17.80224v-48.33792a17.80224 17.80224 0 1 1 35.6096 0v48.33792a17.80224 17.80224 0 0 1-17.80224 17.80224zM693.09952 556.91776h-122.96192a17.80736 17.80736 0 1 1 0-35.6096h122.96192a17.80224 17.80224 0 1 1 0 35.6096z" fill="#2E0C08" p-id="3396"></path><path d="M631.60832 618.39872a17.80224 17.80224 0 0 1-17.80224-17.80736V477.62944a17.80224 17.80224 0 1 1 35.6096 0v122.96704a17.79712 17.79712 0 0 1-17.80736 17.80224zM444.36992 775.66976c-1.96608 0-3.9424-0.32256-5.84192-0.98304l-89.23648-30.976a17.80736 17.80736 0 0 1 11.6736-33.64352l81.42336 28.26752 53.21216-31.54944a17.80224 17.80224 0 1 1 18.16576 30.62784l-60.32384 35.76832a17.77152 17.77152 0 0 1-9.07264 2.48832z" fill="#2E0C08" p-id="3397"></path><path d="M565.48864 775.66976c-3.15904 0-6.2976-0.83968-9.07776-2.48832l-60.32384-35.76832a17.80224 17.80224 0 1 1 18.16576-30.62784l53.09952 31.488 72.54528-26.15808a17.80224 17.80224 0 1 1 12.07808 33.50016l-80.44544 28.99968a17.68448 17.68448 0 0 1-6.0416 1.05472z" fill="#2E0C08" p-id="3398"></path><path d="M504.18176 624.14848m-34.07872 0a34.07872 34.07872 0 1 0 68.15744 0 34.07872 34.07872 0 1 0-68.15744 0Z" fill="#CF3924" p-id="3399"></path><path d="M504.18176 670.10048c-25.33888 0-45.952-20.608-45.952-45.952s20.61312-45.94688 45.952-45.94688c25.33376 0 45.94688 20.60288 45.94688 45.94688s-20.61312 45.952-45.94688 45.952z m0-68.16256c-12.24704 0-22.21056 9.96352-22.21056 22.21056s9.96352 22.21056 22.21056 22.21056 22.20544-9.96352 22.20544-22.21056-9.96352-22.21056-22.20544-22.21056zM377.6256 596.36224c-46.848 0-83.54304-25.1392-83.54304-57.24672 0-32.1024 36.69504-57.24672 83.54304-57.24672 46.84288 0 83.54304 25.14944 83.54304 57.24672 0 32.1024-36.70016 57.24672-83.54304 57.24672z m0-78.88896c-28.81536 0-47.93856 13.02528-47.93856 21.64224s19.11808 21.63712 47.93856 21.63712c28.81536 0 47.93344-13.02016 47.93344-21.63712s-19.11808-21.64224-47.93344-21.64224z" fill="#2E0C08" p-id="3400"></path><path d="M509.80352 897.10592c-1.23392 0-2.45248-0.128-3.64544-0.37888-95.90784-5.3504-179.08224-37.41696-234.43456-90.43968-83.39456-79.8976-57.4208-170.15808-43.4688-218.65472 3.31264-11.52 6.17984-21.46816 6.7328-27.776 0.88576-10.05056 0.26112-20.46464-0.45568-32.52224-1.90976-31.90272-4.28544-71.6032 18.81088-134.9376 0.19456-0.5376 0.41984-1.06496 0.66048-1.58208C309.95456 273.78688 427.65824 256.3072 492.83584 256.3072c6.56896 0 11.86304 0.16896 15.54944 0.29184 1.42848 0.04608 2.58048 0.08704 3.43552 0.09728l2.94912-0.09728a446.2592 446.2592 0 0 1 15.54432-0.29184c65.18272 0 182.89152 17.47968 238.83264 134.50752 0.24064 0.51712 0.46592 1.04448 0.66048 1.57696 23.10144 63.32416 20.72576 103.02976 18.82112 134.93248-0.72704 12.05248-1.34656 22.47168-0.4608 32.52224 0.55296 6.30784 3.42016 16.26112 6.7328 27.776 13.952 48.50176 39.92064 138.76224-43.47392 218.65984-55.3728 53.05344-138.61376 85.12512-234.59328 90.44992a17.06496 17.06496 0 0 1-4.52096 0.33792l-0.75776-0.0512-0.71168 0.0512a17.7664 17.7664 0 0 1-1.03936 0.03584zM286.49984 405.41184c-20.2496 55.89504-18.22208 89.83552-16.42496 119.79776 0.77312 12.90752 1.50016 25.09824 0.384 37.77536-0.85504 9.72288-4.16256 21.20192-7.9872 34.49344-13.53216 47.02208-33.97632 118.08256 33.88416 183.09632 49.70496 47.60576 125.824 76.27264 214.34368 80.73728 0.29696 0.01024 0.5888 0.03584 0.87552 0.06144 0.29184-0.0256 0.58368-0.0512 0.88064-0.06144 88.5248-4.45952 164.64384-33.13152 214.34368-80.73728 67.85536-65.01376 47.41632-136.07424 33.87904-183.10144-3.81952-13.29152-7.12192-24.76544-7.98208-34.48832-1.1264-12.67712-0.39424-24.86784 0.384-37.7856 1.792-29.96224 3.81952-63.89248-16.43008-119.78752-47.68256-98.72896-149.67808-113.49504-206.34112-113.49504-6.08256 0-10.97728 0.16384-14.3872 0.27136-1.70496 0.05632-3.08736 0.1024-4.11136 0.11264-1.50528-0.01024-2.88256-0.05632-4.59264-0.11264-3.41504-0.10752-8.30976-0.27136-14.39232-0.27136-56.64256 0-158.6432 14.76608-206.32576 113.49504z" fill="#2E0C08" p-id="3401"></path></svg>