<?xml version="1.0" standalone="no"?><!DOCTYPE svg PUBLIC "-//W3C//DTD SVG 1.1//EN" "http://www.w3.org/Graphics/SVG/1.1/DTD/svg11.dtd"><svg t="1699179493744" class="icon" viewBox="0 0 1024 1024" version="1.1" xmlns="http://www.w3.org/2000/svg" p-id="6649" xmlns:xlink="http://www.w3.org/1999/xlink" width="200" height="200"><path d="M929.391304 1.853217c61.83513 0 92.755478 30.920348 92.755479 92.755479v834.782608c0 61.83513-30.920348 92.755478-92.755479 92.755479H94.608696C32.773565 1022.146783 1.853217 991.22087 1.853217 929.391304V94.608696C1.853217 32.773565 32.77913 1.853217 94.608696 1.853217h834.782608zM748.521739 233.73913a23.190261 23.190261 0 0 0-23.190261 23.190261v73.505392a69.565217 69.565217 0 0 0 0 131.244521v305.391305a23.190261 23.190261 0 0 0 46.380522 0V461.634783a69.565217 69.565217 0 0 0 0-131.155479V256.929391A23.190261 23.190261 0 0 0 748.521739 233.73913z m-231.885913 0a23.190261 23.190261 0 0 0-23.184696 23.190261v305.391305a69.565217 69.565217 0 0 0 0 131.244521v73.505392a23.190261 23.190261 0 0 0 46.374957 0v-73.549913a69.565217 69.565217 0 0 0 0-131.155479V256.929391A23.190261 23.190261 0 0 0 516.635826 233.73913z m-231.880348 0A23.190261 23.190261 0 0 0 261.565217 256.929391v73.505392a69.565217 69.565217 0 0 0 0 131.244521v305.391305a23.190261 23.190261 0 0 0 46.374957 0V461.634783a69.565217 69.565217 0 0 0 0-131.155479V256.929391A23.190261 23.190261 0 0 0 284.755478 233.73913z" p-id="6650" fill="#ffffff"></path></svg>