<?xml version="1.0" standalone="no"?><!DOCTYPE svg PUBLIC "-//W3C//DTD SVG 1.1//EN" "http://www.w3.org/Graphics/SVG/1.1/DTD/svg11.dtd"><svg t="1699154868085" class="icon" viewBox="0 0 1024 1024" version="1.1" xmlns="http://www.w3.org/2000/svg" p-id="2914" xmlns:xlink="http://www.w3.org/1999/xlink" width="200" height="200"><path d="M512 4c-6.2 0-11.2 5-11.2 11.2v61c0 6.2 5 11.2 11.2 11.2s11.2-5 11.2-11.2v-61C523.2 9 518.2 4 512 4z m0 932.4c-6.2 0-11.2 5-11.2 11.2v61c0 6.2 5 11.2 11.2 11.2s11.2-5 11.2-11.2v-61c0-6.2-5-11.2-11.2-11.2zM317.6 42.6c-5.8 2.4-8.4 9-6.2 14.8l23.4 56.4c2.4 5.8 9 8.4 14.8 6.2 5.8-2.4 8.4-9 6.2-14.8l-23.4-56.4c-2.4-5.8-9-8.6-14.8-6.2z m356.8 861.6c-5.8 2.4-8.4 9-6.2 14.8l23.4 56.4c2.4 5.8 9 8.4 14.8 6.2 5.8-2.4 8.4-9 6.2-14.8l-23.4-56.4c-2.4-6-9-8.6-14.8-6.2zM152.8 152.8c-4.4 4.4-4.4 11.6 0 16l43.2 43c4.4 4.4 11.6 4.4 16 0s4.4-11.6 0-16l-43.2-43c-4.4-4.4-11.6-4.4-16 0z m659.4 659.4c-4.4 4.4-4.4 11.6 0 16l43.2 43.2c4.4 4.4 11.6 4.4 16 0s4.4-11.6 0-16L828 812.2c-4.4-4.4-11.4-4.4-15.8 0zM42.6 317.6c-2.4 5.8 0.4 12.4 6.2 14.8l56.4 23.4c5.8 2.4 12.4-0.4 14.8-6.2 2.4-5.8-0.4-12.4-6.2-14.8l-56.4-23.4c-5.8-2.2-12.4 0.4-14.8 6.2z m861.6 356.8c-2.4 5.8 0.4 12.4 6.2 14.8l56.4 23.4c5.8 2.4 12.4-0.4 14.8-6.2 2.4-5.8-0.4-12.4-6.2-14.8L919 668.2c-5.8-2.2-12.4 0.4-14.8 6.2zM4 512c0 6.2 5 11.2 11.2 11.2h61c6.2 0 11.2-5 11.2-11.2s-5-11.2-11.2-11.2h-61C9 500.8 4 505.8 4 512z m932.4 0c0 6.2 5 11.2 11.2 11.2h61c6.2 0 11.2-5 11.2-11.2s-5-11.2-11.2-11.2h-61c-6.2 0-11.2 5-11.2 11.2zM42.6 706.4c2.4 5.8 9 8.4 14.8 6.2l56.4-23.4c5.8-2.4 8.4-9 6.2-14.8-2.4-5.8-9-8.4-14.8-6.2l-56.4 23.4c-5.8 2.4-8.6 9-6.2 14.8z m861.6-356.8c2.4 5.8 9 8.4 14.8 6.2l56.4-23.4c5.8-2.4 8.4-9 6.2-14.8-2.4-5.8-9-8.4-14.8-6.2l-56.4 23.4c-6 2.4-8.6 9-6.2 14.8zM152.8 871.2c4.4 4.4 11.6 4.4 16 0L212 828c4.4-4.4 4.4-11.6 0-16s-11.6-4.4-16 0l-43.2 43.2c-4.4 4.4-4.4 11.6 0 16z m659.4-659.4c4.4 4.4 11.6 4.4 16 0l43.2-43.2c4.4-4.4 4.4-11.6 0-16s-11.6-4.4-16 0L812.2 196c-4.4 4.4-4.4 11.4 0 15.8zM317.6 981.4c5.8 2.4 12.4-0.4 14.8-6.2l23.4-56.4c2.4-5.8-0.4-12.4-6.2-14.8-5.8-2.4-12.4 0.4-14.8 6.2l-23.4 56.4c-2.2 5.8 0.4 12.4 6.2 14.8z m356.8-861.6c5.8 2.4 12.4-0.4 14.8-6.2l23.4-56.4c2.4-5.8-0.4-12.4-6.2-14.8s-12.4 0.4-14.8 6.2L668.2 105c-2.2 5.8 0.4 12.4 6.2 14.8z" fill="#ffffff" p-id="2915"></path><path d="M662.4 248c-61.2 0-115.4 28.8-150.4 73.4-35-44.6-89.4-73.4-150.4-73.4-105.6 0-191.4 85.6-191.4 191.4 0 181 341.8 402.2 341.8 402.2s341.8-218.2 341.8-402.2c0-105.6-85.6-191.4-191.4-191.4z" fill="#ffffff" p-id="2916"></path></svg>