<?xml version="1.0" standalone="no"?><!DOCTYPE svg PUBLIC "-//W3C//DTD SVG 1.1//EN" "http://www.w3.org/Graphics/SVG/1.1/DTD/svg11.dtd"><svg t="1698990514711" class="icon" viewBox="0 0 1024 1024" version="1.1" xmlns="http://www.w3.org/2000/svg" p-id="5222" xmlns:xlink="http://www.w3.org/1999/xlink" width="200" height="200"><path d="M512.7168 582.656m-72.3456 0a72.3456 72.3456 0 1 0 144.6912 0 72.3456 72.3456 0 1 0-144.6912 0Z" fill="#ffffff" p-id="5223"></path><path d="M845.1584 252.7744l-233.472-148.48a184.7296 184.7296 0 0 0-197.9904 0l-233.4208 148.48a183.3984 183.3984 0 0 0-85.248 155.392v346.1632a184.32 184.32 0 0 0 184.32 184.32h466.8928a184.32 184.32 0 0 0 184.32-184.32V408.1664a183.5008 183.5008 0 0 0-85.4016-155.392z m-332.4416 473.9584a144.0768 144.0768 0 1 1 144.0256-144.0768 144.2304 144.2304 0 0 1-144.0256 144.0768z" fill="#ffffff" p-id="5224"></path></svg>