<?xml version="1.0" standalone="no"?><!DOCTYPE svg PUBLIC "-//W3C//DTD SVG 1.1//EN" "http://www.w3.org/Graphics/SVG/1.1/DTD/svg11.dtd"><svg t="1699006421633" class="icon" viewBox="0 0 1024 1024" version="1.1" xmlns="http://www.w3.org/2000/svg" p-id="8176" xmlns:xlink="http://www.w3.org/1999/xlink" width="200" height="200"><path d="M927.9488 225.8944a107.52 107.52 0 0 0-78.8992-34.6624H237.7216l-0.6656-7.5776A120.7296 120.7296 0 0 0 116.1728 72.704h-27.0336a30.72 30.72 0 0 0 0 61.44h27.0336a59.5968 59.5968 0 0 1 59.6992 54.784l40.96 475.2384a128 128 0 0 0 128.3584 117.76h451.7888a128 128 0 0 0 128.3584-117.76l30.3616-356.5568a107.52 107.52 0 0 0-27.7504-81.7152z m-227.7888 397.7728H446.4128a35.84 35.84 0 0 1 0-71.68h253.7472a35.84 35.84 0 0 1 0 71.68zM319.5904 831.232A54.4768 54.4768 0 1 0 374.0672 885.76a54.4768 54.4768 0 0 0-54.4768-54.528zM823.04 831.232A54.4768 54.4768 0 1 0 877.5168 885.76a54.4768 54.4768 0 0 0-54.4768-54.528z" fill="#ffffff" p-id="8177"></path></svg>