<?xml version="1.0" standalone="no"?><!DOCTYPE svg PUBLIC "-//W3C//DTD SVG 1.1//EN" "http://www.w3.org/Graphics/SVG/1.1/DTD/svg11.dtd"><svg t="1699006210329" class="icon" viewBox="0 0 1024 1024" version="1.1" xmlns="http://www.w3.org/2000/svg" p-id="6905" xmlns:xlink="http://www.w3.org/1999/xlink" width="200" height="200"><path d="M512.9216 72.9088a380.928 380.928 0 1 0 380.928 380.928 381.3376 381.3376 0 0 0-380.928-380.928z m170.2912 492.032a193.4848 193.4848 0 0 1-339.8656 6.6048 35.84 35.84 0 1 1 62.2592-35.5328 121.8048 121.8048 0 0 0 214.016-4.1472 35.84 35.84 0 1 1 63.5904 33.0752z" fill="#ffffff" p-id="6906"></path><path d="M845.056 949.6064H180.8384a30.72 30.72 0 1 1 0-61.44h664.2176a30.72 30.72 0 0 1 0 61.44z" fill="#ffffff" p-id="6907"></path></svg>