<?xml version="1.0" standalone="no"?><!DOCTYPE svg PUBLIC "-//W3C//DTD SVG 1.1//EN" "http://www.w3.org/Graphics/SVG/1.1/DTD/svg11.dtd"><svg t="1699006319315" class="icon" viewBox="0 0 1024 1024" version="1.1" xmlns="http://www.w3.org/2000/svg" p-id="7541" xmlns:xlink="http://www.w3.org/1999/xlink" width="200" height="200"><path d="M925.696 513.792A115.2 115.2 0 0 0 861.8496 317.44l-143.36-20.8384a53.6064 53.6064 0 0 1-40.448-29.3888L613.9392 137.216a115.1488 115.1488 0 0 0-206.5408 0L343.296 267.1104a53.6576 53.6576 0 0 1-40.4992 29.3888l-143.36 20.9408a115.2 115.2 0 0 0-63.7952 196.4544l103.7312 101.0176a53.76 53.76 0 0 1 15.36 47.5136l-24.5248 142.7968A114.9952 114.9952 0 0 0 357.4272 926.72l128-67.3792a53.7088 53.7088 0 0 1 50.0224 0l128 67.3792a115.1488 115.1488 0 0 0 167.0656-121.3952l-24.4736-142.7968a53.504 53.504 0 0 1 15.36-47.5136z m-259.3792 59.0848a176.8448 176.8448 0 0 1-310.6304 6.0416 35.84 35.84 0 1 1 62.2592-35.5328 105.1648 105.1648 0 0 0 184.7808-3.584 35.84 35.84 0 1 1 63.5904 33.0752z" fill="#ffffff" p-id="7542"></path></svg>