<?xml version="1.0" standalone="no"?><!DOCTYPE svg PUBLIC "-//W3C//DTD SVG 1.1//EN" "http://www.w3.org/Graphics/SVG/1.1/DTD/svg11.dtd"><svg t="1699090650318" class="icon" viewBox="0 0 1024 1024" version="1.1" xmlns="http://www.w3.org/2000/svg" p-id="14104" xmlns:xlink="http://www.w3.org/1999/xlink" width="200" height="200"><path d="M78.769231 47.261538a31.507692 31.507692 0 0 0-31.507693 31.507693v157.538461a31.507692 31.507692 0 0 0 31.507693 31.507693h157.538461a31.507692 31.507692 0 0 0 31.507693-31.507693V78.769231a31.507692 31.507692 0 0 0-31.507693-31.507693H78.769231M78.769231 0h157.538461a78.769231 78.769231 0 0 1 78.769231 78.769231v157.538461a78.769231 78.769231 0 0 1-78.769231 78.769231H78.769231a78.769231 78.769231 0 0 1-78.769231-78.769231V78.769231a78.769231 78.769231 0 0 1 78.769231-78.769231z" fill="#ffffff" p-id="14105"></path><path d="M78.769231 401.723077a31.507692 31.507692 0 0 0-31.507693 31.507692v157.538462a31.507692 31.507692 0 0 0 31.507693 31.507692h157.538461a31.507692 31.507692 0 0 0 31.507693-31.507692v-157.538462a31.507692 31.507692 0 0 0-31.507693-31.507692H78.769231M78.769231 354.461538h157.538461a78.769231 78.769231 0 0 1 78.769231 78.769231v157.538462a78.769231 78.769231 0 0 1-78.769231 78.769231H78.769231a78.769231 78.769231 0 0 1-78.769231-78.769231v-157.538462a78.769231 78.769231 0 0 1 78.769231-78.769231z" fill="#ffffff" p-id="14106"></path><path d="M78.769231 756.184615a31.507692 31.507692 0 0 0-31.507693 31.507693v157.538461a31.507692 31.507692 0 0 0 31.507693 31.507693h157.538461a31.507692 31.507692 0 0 0 31.507693-31.507693v-157.538461a31.507692 31.507692 0 0 0-31.507693-31.507693H78.769231M78.769231 708.923077h157.538461a78.769231 78.769231 0 0 1 78.769231 78.769231v157.538461a78.769231 78.769231 0 0 1-78.769231 78.769231H78.769231a78.769231 78.769231 0 0 1-78.769231-78.769231v-157.538461a78.769231 78.769231 0 0 1 78.769231-78.769231z" fill="#ffffff" p-id="14107"></path><path d="M433.230769 47.261538a31.507692 31.507692 0 0 0-31.507692 31.507693v157.538461a31.507692 31.507692 0 0 0 31.507692 31.507693h157.538462a31.507692 31.507692 0 0 0 31.507692-31.507693V78.769231a31.507692 31.507692 0 0 0-31.507692-31.507693h-157.538462M433.230769 0h157.538462a78.769231 78.769231 0 0 1 78.769231 78.769231v157.538461a78.769231 78.769231 0 0 1-78.769231 78.769231h-157.538462a78.769231 78.769231 0 0 1-78.769231-78.769231V78.769231a78.769231 78.769231 0 0 1 78.769231-78.769231z" fill="#ffffff" p-id="14108"></path><path d="M433.230769 401.723077a31.507692 31.507692 0 0 0-31.507692 31.507692v157.538462a31.507692 31.507692 0 0 0 31.507692 31.507692h157.538462a31.507692 31.507692 0 0 0 31.507692-31.507692v-157.538462a31.507692 31.507692 0 0 0-31.507692-31.507692h-157.538462M433.230769 354.461538h157.538462a78.769231 78.769231 0 0 1 78.769231 78.769231v157.538462a78.769231 78.769231 0 0 1-78.769231 78.769231h-157.538462a78.769231 78.769231 0 0 1-78.769231-78.769231v-157.538462a78.769231 78.769231 0 0 1 78.769231-78.769231z" fill="#ffffff" p-id="14109"></path><path d="M433.230769 756.184615a31.507692 31.507692 0 0 0-31.507692 31.507693v157.538461a31.507692 31.507692 0 0 0 31.507692 31.507693h157.538462a31.507692 31.507692 0 0 0 31.507692-31.507693v-157.538461a31.507692 31.507692 0 0 0-31.507692-31.507693h-157.538462m0-47.261538h157.538462a78.769231 78.769231 0 0 1 78.769231 78.769231v157.538461a78.769231 78.769231 0 0 1-78.769231 78.769231h-157.538462a78.769231 78.769231 0 0 1-78.769231-78.769231v-157.538461a78.769231 78.769231 0 0 1 78.769231-78.769231z" fill="#ffffff" p-id="14110"></path><path d="M787.692308 47.261538a31.507692 31.507692 0 0 0-31.507693 31.507693v157.538461a31.507692 31.507692 0 0 0 31.507693 31.507693h157.538461a31.507692 31.507692 0 0 0 31.507693-31.507693V78.769231a31.507692 31.507692 0 0 0-31.507693-31.507693h-157.538461M787.692308 0h157.538461a78.769231 78.769231 0 0 1 78.769231 78.769231v157.538461a78.769231 78.769231 0 0 1-78.769231 78.769231h-157.538461a78.769231 78.769231 0 0 1-78.769231-78.769231V78.769231a78.769231 78.769231 0 0 1 78.769231-78.769231z" fill="#ffffff" p-id="14111"></path><path d="M787.692308 401.723077a31.507692 31.507692 0 0 0-31.507693 31.507692v157.538462a31.507692 31.507692 0 0 0 31.507693 31.507692h157.538461a31.507692 31.507692 0 0 0 31.507693-31.507692v-157.538462a31.507692 31.507692 0 0 0-31.507693-31.507692h-157.538461M787.692308 354.461538h157.538461a78.769231 78.769231 0 0 1 78.769231 78.769231v157.538462a78.769231 78.769231 0 0 1-78.769231 78.769231h-157.538461a78.769231 78.769231 0 0 1-78.769231-78.769231v-157.538462a78.769231 78.769231 0 0 1 78.769231-78.769231z" fill="#ffffff" p-id="14112"></path><path d="M787.692308 756.184615a31.507692 31.507692 0 0 0-31.507693 31.507693v157.538461a31.507692 31.507692 0 0 0 31.507693 31.507693h157.538461a31.507692 31.507692 0 0 0 31.507693-31.507693v-157.538461a31.507692 31.507692 0 0 0-31.507693-31.507693h-157.538461m0-47.261538h157.538461a78.769231 78.769231 0 0 1 78.769231 78.769231v157.538461a78.769231 78.769231 0 0 1-78.769231 78.769231h-157.538461a78.769231 78.769231 0 0 1-78.769231-78.769231v-157.538461a78.769231 78.769231 0 0 1 78.769231-78.769231z" fill="#ffffff" p-id="14113"></path></svg>