<?xml version="1.0" standalone="no"?><!DOCTYPE svg PUBLIC "-//W3C//DTD SVG 1.1//EN" "http://www.w3.org/Graphics/SVG/1.1/DTD/svg11.dtd"><svg t="1698942827944" class="icon" viewBox="0 0 1024 1024" version="1.1" xmlns="http://www.w3.org/2000/svg" p-id="3958" xmlns:xlink="http://www.w3.org/1999/xlink" width="200" height="200"><path d="M512 512m-512 0a512 512 0 1 0 1024 0 512 512 0 1 0-1024 0Z" fill="#ff0000" p-id="3959"></path><path d="M800.50625001 517.03541665a233.26875001 233.26875001 0 0 0-38.81250002-77.73749998 278.94375001 278.94375001 0 0 0-74.92499998-67.1625 208.125 208.125 0 0 0-97.81875001-28.74375001l-14.34374999-53.83124999a27.5625 27.5625 0 0 1 7.36874999-24.8625 38.7 38.7 0 0 1 24.8625-12.825 70.425 70.425 0 0 1 38.8125 12.825c4.33125001 2.30625001 7.36875001 5.9625 11.64375001 8.8875a39.375 39.375 0 0 0 56.7-48.15 45.50625001 45.50625001 0 0 0-15.525-19.0125 161.8875 161.8875 0 0 0-60.975-29.41875001 116.60625001 116.60625001 0 0 0-60.1875 0.7875 113.5125 113.5125 0 0 0-41.56875001 25.65 111.4875 111.4875 0 0 0-28.125 35.325 107.26875001 107.26875001 0 0 0-5.9625 77.7375l9.3375 35.8875a194.5125 194.5125 0 0 0-107.94375001 74.5875 175.6125 175.6125 0 0 0-29.47499998 107.15625001 169.70625001 169.70625001 0 0 0 9.3375 50.625 140.11875001 140.11875001 0 0 0 55.125 71.49374999 127.0125 127.0125 0 0 0 93.14999998 17.4375 132.35624999 132.35624999 0 0 0 106.875-134.38124999l-3.88124999-22.5c-8.15625001-31.44375001-16.875-62.49375001-24.46875001-93.6a122.4 122.4 0 0 1 32.56875001 12.43124999 216.3375 216.3375 0 0 1 32.56874999 23.90625001 163.9125 163.9125 0 0 1 49.33125001 75.7125 193.78125001 193.78125001 0 0 1 0 107.6625 172.4625 172.4625 0 0 1-14.79375001 34.93124999 210.76875001 210.76875001 0 0 1-114.91874999 98.60625001 265.44375001 265.44375001 0 0 1-88.93125001 15.91874999 227.1375 227.1375 0 0 1-106.03124999-25.65A251.2125 251.2125 0 0 1 283.00624999 632.34791667a254.7 254.7 0 0 1-14.00624999-123.75000002A250.03125001 250.03125001 0 0 1 427.85 308.23541665a39.375 39.375 0 0 0 8.8875-68.34374999A51.91875001 51.91875001 0 0 0 393.25624999 237.58541665 327.76875001 327.76875001 0 0 0 196.775 470.79791665a334.0125 334.0125 0 0 0 88.14375001 307.91250002 310.66875001 310.66875001 0 0 0 170.09999998 89.99999998 319.95 319.95 0 0 0 94.38750002 0 310.66875001 310.66875001 0 0 0 128.53124999-45 291.88125001 291.88125001 0 0 0 116.49375001-142.87499998 284.11875001 284.11875001 0 0 0 15.525-74.58750002 258.75 258.75 0 0 0-9.45-89.2125zM518.58125001 598.20416666a49.275 49.275 0 0 1-38.81250002-7.36875001 67.5 67.5 0 0 1-25.65-41.84999998 116.325 116.325 0 0 1 0-45 91.2375 91.2375 0 0 1 22.89375001-43.48125001 123.75 123.75 0 0 1 55.125-31.8375l26.775 101.25a142.2 142.2 0 0 1 3.54375001 17.94375001 54.3375 54.3375 0 0 1-43.875 50.34374999z" fill="#ffffff" p-id="3960"></path></svg>